<svg xmlns="http://www.w3.org/2000/svg" width="216" height="52" viewBox="0 0 216 52">
    <g fill="none">
        <path fill="#333" d="M10.027 45.522c-.414-.413-.954-.62-1.62-.62-.68 0-1.231.207-1.657.62-.426.414-.64.953-.64 1.62 0 .666.213 1.199.64 1.6.426.4.978.602 1.656.602.667 0 1.207-.201 1.62-.602.415-.401.62-.934.62-1.6 0-.667-.206-1.206-.62-1.62zM.684 34.78h6.092c.505 0 .864.133 1.074.398.21.265.315.62.315 1.063h3.073v-1.72h2.111v7.346c0 .617-.133 1.154-.397 1.61-.266.457-.62.852-1.066 1.184.285.334.51.71.676 1.129.166.42.25.87.25 1.352 0 .579-.12 1.107-.36 1.582-.242.474-.56.884-.954 1.23-.408.345-.877.61-1.408.796-.53.185-1.091.277-1.684.277-.606 0-1.176-.092-1.713-.277-.537-.185-1.01-.451-1.417-.795-.396-.334-.71-.741-.944-1.222-.236-.481-.352-1.012-.352-1.591 0-.58.117-1.111.353-1.592.234-.482.548-.894.944-1.24.407-.345.88-.614 1.416-.805.537-.191 1.107-.287 1.712-.287.394 0 .78.046 1.157.138.377.094.732.213 1.066.362.21-.21.364-.463.463-.76.098-.295.147-.671.147-1.127v-.28H7.702v-1.664h3.537v-1.98H7.85c-.443 1.222-1.242 2.348-2.396 3.377-1.155 1.03-2.503 1.903-4.046 2.619L.5 42.2c.592-.271 1.171-.576 1.74-.916.567-.34 1.092-.712 1.573-1.12.482-.407.904-.847 1.27-1.322.364-.475.638-1.002.823-1.583.074-.271.08-.468.018-.592-.061-.123-.204-.185-.425-.185H.684V34.78zM26.866 49.455h2.13V34.706h-2.13v14.749zm-10.442-4.442c.778-.543 1.478-1.083 2.101-1.619.624-.537 1.164-1.089 1.621-1.656.468-.58.851-1.188 1.148-1.823.296-.636.512-1.33.648-2.082.024-.185.024-.361 0-.527-.026-.168-.167-.251-.426-.251h-5.111v-1.721h6.481c.556 0 .926.18 1.111.537.185.358.259.772.223 1.24-.088.839-.287 1.687-.603 2.544-.314.858-.75 1.694-1.304 2.508-.557.814-1.229 1.598-2.019 2.35-.79.753-1.703 1.444-2.741 2.073l-1.129-1.573zM35.365 40.646c0 .26.062.44.186.545.123.105.301.158.537.158h2.703c.778 0 1.595-.043 2.453-.13.858-.086 1.731-.24 2.62-.463l.352 1.61c-.666.222-1.392.384-2.175.482-.785.1-1.583.16-2.399.185v3.09h6.074v1.703H31.44v-1.703h6.018v-3.09H35.7c-.815 0-1.427-.167-1.834-.5-.407-.333-.61-.85-.61-1.554v-5.904H43.68v1.721h-8.314v3.85zM63.256 45.633c-.414-.39-.953-.583-1.62-.583-.679 0-1.232.194-1.657.583-.426.389-.639.916-.639 1.582s.213 1.188.639 1.564c.425.376.978.564 1.657.564.667 0 1.206-.188 1.62-.564.413-.376.62-.898.62-1.564s-.207-1.193-.62-1.582zm3.305-3.914c0 .629-.133 1.206-.398 1.73-.265.525-.627.953-1.083 1.287.296.332.53.706.703 1.119.173.414.259.866.259 1.36 0 .58-.119 1.104-.36 1.573-.241.469-.56.87-.953 1.202-.408.334-.877.59-1.408.769-.531.179-1.093.268-1.685.268-.606 0-1.176-.09-1.713-.268-.537-.18-1.009-.435-1.416-.77-.396-.331-.711-.732-.944-1.201-.236-.47-.353-.993-.353-1.573s.117-1.107.353-1.582c.233-.475.548-.88.944-1.212.407-.333.879-.592 1.416-.777.537-.186 1.107-.28 1.713-.28.37 0 .731.039 1.083.113.351.074.687.179 1.01.315.246-.223.428-.506.546-.851.117-.346.175-.766.175-1.26v-2.128h-2.703V37.87h2.703v-3.35h2.111v7.199zm-13.054-6.2h2.519c.074-.185.132-.397.175-.638.043-.241.053-.465.028-.675-.012-.074-.035-.177-.065-.305-.031-.13-.064-.257-.101-.38l2.018-.5c.049.186.086.405.112.657.023.254.036.472.036.657-.025.235-.059.444-.102.63-.043.185-.114.369-.213.555h1.982c.53 0 .863.148 1 .444.134.296.166.61.091.944-.11.407-.265.814-.462 1.22-.198.408-.438.797-.722 1.167.222.037.419.105.593.203.172.099.333.21.481.334.259.283.519.573.777.869.26.296.562.655.908 1.073l-1.37 1.222c-.333-.407-.624-.756-.872-1.045-.246-.29-.493-.571-.74-.842-.136-.137-.277-.251-.426-.343-.147-.093-.302-.17-.462-.231-.642.604-1.371 1.162-2.185 1.675-.814.51-1.686.952-2.61 1.323l-.779-1.74c1.247-.555 2.327-1.16 3.241-1.814.914-.653 1.629-1.43 2.148-2.331.086-.148.11-.26.074-.333-.038-.075-.13-.111-.278-.111h-4.796V35.52zM76.614 36.648c0 .247-.018.49-.055.731-.038.241-.087.472-.148.694.382-.011.76.028 1.13.12.37.093.71.257 1.017.491.223.185.485.407.787.666l.973.833 1.018.906c.345.309.674.599.982.87l-1.315 1.536c-.285-.259-.583-.536-.898-.833-.315-.296-.633-.586-.954-.869-.308-.284-.608-.552-.898-.805-.29-.253-.535-.472-.732-.657-.246-.185-.524-.343-.832-.472-.309-.129-.642-.213-1-.25-.556.864-1.312 1.642-2.268 2.332-.957.691-2.04 1.221-3.249 1.592l-.593-1.814c1.555-.518 2.755-1.234 3.601-2.147.845-.913 1.268-1.887 1.268-2.924v-.314c0-.161-.019-.364-.055-.61-.038-.248-.092-.482-.168-.704l2.075-.537c.111.259.191.531.24.814.05.284.074.586.074.908v.443zm.334 5.978v3.497h6.055v1.703H68.726v-1.703h6.037v-3.497h2.185zM92.02 35.816h3.723v-1.295h2.11v10.954h-2.11v-5.07H92.02v-1.647h3.722v-1.314H92.02v-1.628zm-2.684 12.472c0 .173.027.293.083.361.055.068.169.102.342.102h4.203c.742 0 1.42-.043 2.037-.13.618-.086 1.278-.241 1.98-.462l.446 1.592c-.407.134-.777.246-1.111.332-.333.086-.666.161-1 .222-.333.049-.685.086-1.056.111-.37.025-.796.038-1.277.038H89.28c-.642 0-1.145-.142-1.51-.426-.363-.284-.545-.722-.545-1.314v-3.867h2.11v3.441zm-2.13-5.052c-.741 0-1.278-.151-1.611-.453-.333-.302-.5-.768-.5-1.397v-6.607h2.112v6.218c0 .197.04.34.12.426.08.086.218.129.416.129h1.964c.739 0 1.459-.033 2.156-.102.697-.068 1.404-.194 2.12-.379l.315 1.591c-.802.247-1.592.405-2.37.473-.778.067-1.518.101-2.221.101h-2.5zM115.792 44.17c.222-.998.41-2.05.564-3.154.155-1.105.233-2.303.233-3.6 0-.16-.034-.277-.103-.351-.068-.075-.17-.111-.304-.111h-8.37V35.25h9.184c.604 0 1.033.143 1.286.425.253.285.38.71.38 1.277-.013.592-.044 1.21-.093 1.851-.049.642-.117 1.283-.203 1.925-.087.654-.185 1.293-.297 1.916-.11.621-.234 1.21-.37 1.766l-1.907-.24zm-6.943 1.944v-4.811h2.054v4.81h1.926v-4.81h2.056v4.81h5.462v1.703h-14.276v-1.703h2.778zM130.549 46.382c-.432-.265-.981-.398-1.647-.398-.68 0-1.235.133-1.667.398-.432.266-.648.694-.648 1.286 0 .605.216 1.037.648 1.295.432.26.988.39 1.667.39.666 0 1.215-.13 1.647-.39.433-.258.648-.69.648-1.295 0-.592-.215-1.02-.648-1.286zm2.417 2.739c-.24.413-.564.76-.973 1.045-.394.272-.86.479-1.397.62-.537.142-1.102.213-1.694.213-.605 0-1.176-.068-1.713-.203-.537-.137-1.01-.346-1.416-.63-.408-.271-.73-.617-.963-1.035-.235-.42-.353-.908-.353-1.463s.118-1.042.353-1.462c.234-.42.555-.77.963-1.055.407-.271.879-.481 1.416-.628.537-.15 1.108-.223 1.713-.223s1.175.074 1.712.223c.537.147 1.003.357 1.399.628.407.285.727.636.962 1.055.235.42.352.907.352 1.462 0 .555-.121 1.04-.361 1.453zm-7.212-12.371h7.98v1.555h-7.98v.426c0 .234.043.385.13.453.086.067.252.1.499.1h4.194c.353 0 .719-.005 1.102-.017.37-.024.75-.058 1.139-.102.388-.043.799-.114 1.23-.213l.298 1.499c-.704.186-1.433.306-2.186.36-.753.056-1.494.084-2.221.084v1.11h6.147v1.648h-14.258v-1.647h5.962v-1.111h-1.926c-.74 0-1.295-.138-1.666-.416-.37-.278-.555-.755-.555-1.434V34.38h10.239v1.61h-8.128v.759zM148.899 49.445h2.13V34.696h-2.13v14.749zm-8.87-5.645c0 .223.049.373.149.453.098.082.228.121.389.121h1.314c.346 0 .7-.039 1.065-.121.364-.08.731-.211 1.102-.397v-3.183h-4.019V43.8zm0-4.866h4.019V35.14h2.073v9.79c-.543.296-1.194.567-1.953.814-.76.246-1.454.37-2.083.37h-2.093c-.74 0-1.264-.182-1.573-.547-.309-.363-.464-.841-.464-1.433V35.14h2.074v3.794zM164.767 49.445h2.13V34.696h-2.13v14.749zm-11.776-4.886c.741-.481 1.447-1.002 2.119-1.563.674-.561 1.276-1.144 1.806-1.749.543-.604.996-1.218 1.361-1.841.364-.623.614-1.237.749-1.842.038-.16.023-.28-.045-.36-.069-.08-.17-.121-.306-.121h-4.999v-1.758h6.296c.518 0 .876.173 1.073.518.197.346.272.772.223 1.278-.075.628-.259 1.273-.556 1.933-.296.66-.667 1.311-1.11 1.952.456.074.814.188 1.073.342.259.155.518.38.777.676.309.395.646.857 1.01 1.388.363.531.719 1.054 1.064 1.573l-1.462 1.11c-.371-.554-.747-1.107-1.13-1.655-.383-.55-.698-.984-.944-1.305-.173-.21-.383-.382-.63-.519-.247-.135-.518-.234-.815-.296-.617.704-1.302 1.379-2.055 2.027-.753.647-1.543 1.249-2.37 1.804l-1.129-1.592zM182.745 46.355h-2.11v-1.388h-3.129v-1.554h3.13v-8.901h2.11v11.843zm-7.045-10.15c-.39-.241-.867-.362-1.434-.362-.582 0-1.066.12-1.455.362-.388.24-.583.589-.583 1.045 0 .469.195.82.583 1.055.39.235.873.35 1.455.35.567 0 1.044-.115 1.434-.35.39-.235.583-.586.583-1.055 0-.456-.194-.805-.583-1.045zm-1.787 12c0 .185.044.32.13.407.086.087.216.13.39.13h4.35c.74 0 1.426-.034 2.055-.102.63-.068 1.296-.213 2-.435l.407 1.61c-.407.136-.777.244-1.11.324-.333.08-.667.145-1 .195-.333.048-.686.08-1.056.092-.37.012-.796.019-1.277.019h-4.963c-.666 0-1.175-.143-1.528-.426-.35-.284-.527-.722-.527-1.314v-3.11h2.13v2.61zm3.343-8.706c-.736.573-1.732.86-2.99.86-1.297 0-2.306-.29-3.029-.87-.72-.58-1.083-1.326-1.083-2.24 0-.887.362-1.627 1.083-2.22.723-.592 1.732-.888 3.03-.888 1.257 0 2.253.296 2.99.888.732.593 1.1 1.333 1.1 2.22 0 .926-.368 1.676-1.1 2.25zm-7.935 1.71h4.703c.73 0 1.556-.026 2.482-.082.925-.056 1.925-.244 3-.564l.332 1.59c-.666.273-1.447.454-2.342.547-.896.092-1.75.139-2.564.139v2.146h-2.13v-2.146h-3.48v-1.63zM186.411 36.787h11.146v-1.721h-11.146v1.721zm9.499.758v2.24c0 .333-.031.66-.093.981-.061.32-.167.629-.314.925h2.147v1.703h-4.517v2.72h6.092v1.702h-14.277v-1.702h5.999v-2.72h-4.629v-1.703h2.167c-.135-.259-.241-.537-.314-.833-.074-.296-.111-.647-.111-1.054v-2.259h2.055v2.443c0 .297.015.583.046.861s.114.558.25.842h3.203c.099-.246.163-.528.195-.842.03-.314.046-.602.046-.861v-2.443h2.055zM205.28 50.629c-.409 0-.748-.095-1.02-.287-.27-.192-.407-.54-.407-1.046v-2.96h8.277v-1.074h-8.277v-1.628h7.518c.284-.234.483-.558.601-.972.118-.412.176-.841.176-1.286v-2.46h-2.666v-1.685h2.666v-2.72h2.111v6.903c0 .518-.108.955-.324 1.314-.216.357-.466.666-.75.924.445.038.74.158.89.362.147.203.203.509.166.916l-.297 2.406c-.024.184-.08.323-.166.416-.087.092-.247.138-.482.138h-7.295v1.111h5.037c.47 0 .971-.028 1.51-.083.536-.057 1.057-.158 1.563-.306l.39 1.536c-.618.185-1.214.311-1.788.379-.574.068-1.126.102-1.657.102h-5.777zm-.26-9.9c.926 0 1.823-.04 2.694-.121.87-.08 1.712-.237 2.527-.471l.334 1.554c-.334.124-.738.231-1.213.324-.476.093-.979.169-1.509.231-.53.062-1.055.106-1.574.13-.52.024-.98.037-1.389.037h-1.463c-.642 0-1.169-.142-1.583-.426-.414-.284-.62-.783-.62-1.499V34.77h7.795v1.684h-5.703v1.221h5.055v1.665h-5.055v.871c0 .197.037.333.111.407.075.074.216.111.426.111h1.167z"/>
        <path fill="#0050A2" d="M66.309 17.233L65.625 17.913 65.625 19.41 66.309 20.091 74 20.091 74.686 19.41 74.686 17.913 74 17.233zM72.255 9.112L74.712 9.112 74.712 7.123 72.255 7.123z"/>
        <path fill="#0050A2" d="M51.701 0l.888.884h7.732V0h34.805l12.595 12.596-12.595 12.595h-6.63v-.883H77.648l-.888.883H63.552l-.89-.883H54.8v.883H9.338v-.883H0V19.91l3.538-4.499L3.537 0h48.164zm23.427 14.691h-9.946l-2.207 2.198v3.546l2.207 2.198h9.946l2.209-2.198v-3.546l-2.209-2.198zM8.841 2.652H6.188l.001 14.063-3.538 4.5v.441h2.957l1.907-2.426 1.907 2.426h2.566v.883h2.652v-9.601h1.436v9.601h2.597V2.652h-2.597v7.744H14.64V2.652h-2.652v18.067l-3.147-4.004V2.652zm84.959 0h-2.652v19.887H93.8V2.652zM40.882 16.128h-2.653l-.002 6.3h13.921v-2.541H40.882v-3.759zM35.136 2.873h-13.48v2.541h10.827v2.709H21.656v7.791h5.414v3.863h-5.856v2.541h14.364v-2.541h-5.856v-3.863h5.414v-2.541H24.308v-2.708h10.828V2.873zm53.581 0h-8.839v2.541h6.189v11.588l-2.115 2.112h-4.074v2.542h5.206l3.633-3.633V2.873zm-36.456 9.168H37.897v2.541h6.298v3.314h2.652v-3.314h5.414v-2.541zm25.076-9.389h-2.625v1.986h-2.457V2.873h-9.278v2.541h6.654v3.92l-1.489 1.488h-5.165v2.541h6.297l1.764-1.764h3.674v1.877h2.625V2.652zm-27.283-.111h-9.947l-2.21 2.198v3.546l2.21 2.197h9.947l2.207-2.197V4.739l-2.207-2.198z"/>
        <path fill="#0050A2" d="M41.234 5.083L40.548 5.764 40.548 7.262 41.234 7.942 48.925 7.942 49.611 7.262 49.611 5.764 48.925 5.083z"/>
        <path fill="#AE841F" d="M141.885 17.233L141.2 17.913 141.2 19.41 141.885 20.091 149.577 20.091 150.259 19.41 150.259 17.913 149.577 17.233zM124.979 17.233L124.296 17.913 124.296 19.41 124.979 20.091 132.67 20.091 133.355 19.41 133.355 17.913 132.67 17.233zM183.95 16.715L187.097 20.719 187.097 12.495 183.95 12.495zM161.842 12.368L162.525 11.687 162.525 9.969 161.842 9.287 158.79 9.287 158.106 9.969 158.106 11.687 158.79 12.368zM199.554 17.233L198.868 17.913 198.868 19.41 199.554 20.091 207.023 20.091 207.708 19.41 207.708 17.913 207.023 17.233z"/>
        <path fill="#AE841F" d="M212.348 9.39h-1.99v4.086h-2.65V2.652h2.65v4.195h1.99V9.39zm-1.987 11.046l-2.21 2.197h-9.726l-2.208-2.197V16.89l2.208-2.198h9.726l2.21 2.198v3.547zm-14.59-7.404l4.199-5.343V2.652h2.652V7.69l4.197 5.341v.444h-2.952l-2.571-3.27-2.571 3.27h-2.954v-.442zm-11.82-10.38v7.302h3.147V2.652h2.652V22.54h-2.652v-.883h-2.566l-1.908-2.427-1.907 2.427h-2.955v-.44l3.536-4.5V2.651h2.653zm9.83 0V22.54h-2.596V2.652h2.597zm-22.406 7.4h-1.987v7.18h-2.652V2.652h2.652v4.86h1.987v2.54zm-1.767 12.487h-13.921l.002-6.415h2.652v3.874h11.267v2.541zM155.452 8.945l2.21-2.199h5.307l2.208 2.2v3.764l-2.208 2.2h-5.307l-2.21-2.2V8.945zm-2.541 4.531h-2.65V9.498h-2.88v-2.54h2.88V2.651h2.65v10.824zm0 6.96l-2.21 2.197h-9.945l-2.208-2.197V16.89l2.208-2.198h9.946l2.209 2.198v3.547zm-15.024-7.404l4.199-5.343V5.41h-3.536V2.87h9.722v2.54h-3.535v2.28l4.198 5.34v.444h-2.954l-2.571-3.27-2.57 3.27h-2.953v-.442zm17.572-9.72h3.535V1.99h2.65v1.323h3.537v2.541h-9.722v-2.54zm-19.452 9.82h-14.363V10.59h4.308V7.275h2.652v3.315h3.848l.57-2.304V5.288h-11.271V2.746h13.922v5.525l-.575 2.32h.909v2.54zm0 7.304l-2.21 2.197h-9.946l-2.207-2.197V16.89l2.207-2.198h9.946l2.21 2.198v3.547zM215 4.196h-1.99V0h-34.364v.882h-6.608V.001h-51.72L107.72 12.595l12.597 12.596h15.112l1.847-1.837 1.848 1.837h33.133v-.883h12.188v.883h25.338l3.227-3.214V12.04H215V4.195z"/>
    </g>
</svg>
