<svg xmlns="http://www.w3.org/2000/svg" width="30" height="30" viewBox="0 0 30 30">
    <path fill="#A5ADBA" d="M22.5 2c.78 0 1.42.595 1.493 1.356L24 3.5v1h1.508c1.593 0 2.896 1.248 2.987 2.816l.005.175v18.018c0 1.593-1.244 2.895-2.816 2.986l-.177.005H4.492c-1.593 0-2.896-1.247-2.987-2.815l-.005-.176V7.491c0-1.593 1.244-2.895 2.816-2.986l.176-.005H6v-1c0-.78.595-1.42 1.356-1.493L7.5 2c.78 0 1.42.595 1.493 1.356L9 3.5v1h12v-1c0-.78.595-1.42 1.356-1.493L22.5 2zm3.5 9H4v13.366c0 .863.65 1.557 1.478 1.628l.14.006h18.765c.837 0 1.54-.657 1.611-1.493l.006-.141V11zm-10 9v3h-2v-3h2zm-7 0v3H7v-3h2zm14 0v3h-2v-3h2zm-7-6v3h-2v-3h2zm-7 0v3H7v-3h2zm14 0v3h-2v-3h2z"/>
</svg>
